<svg id="visual" viewBox="0 0 1500 4000" width="1500" height="4000" xmlns="http://www.w3.org/2000/svg" xmlns:xlink="http://www.w3.org/1999/xlink" version="1.1"><rect x="0" y="0" width="1500" height="4000" fill="#e7f0ff"></rect><defs><linearGradient id="grad1_0" x1="0%" y1="0%" x2="100%" y2="100%"><stop offset="30%" stop-color="#b5d8ec" stop-opacity="1"></stop><stop offset="70%" stop-color="#b5d8ec" stop-opacity="1"></stop></linearGradient></defs><defs><linearGradient id="grad1_1" x1="0%" y1="0%" x2="100%" y2="100%"><stop offset="30%" stop-color="#b5d8ec" stop-opacity="1"></stop><stop offset="70%" stop-color="#bddbef" stop-opacity="1"></stop></linearGradient></defs><defs><linearGradient id="grad1_2" x1="0%" y1="0%" x2="100%" y2="100%"><stop offset="30%" stop-color="#c4dff2" stop-opacity="1"></stop><stop offset="70%" stop-color="#bddbef" stop-opacity="1"></stop></linearGradient></defs><defs><linearGradient id="grad1_3" x1="0%" y1="0%" x2="100%" y2="100%"><stop offset="30%" stop-color="#c4dff2" stop-opacity="1"></stop><stop offset="70%" stop-color="#cce2f5" stop-opacity="1"></stop></linearGradient></defs><defs><linearGradient id="grad1_4" x1="0%" y1="0%" x2="100%" y2="100%"><stop offset="30%" stop-color="#d3e5f8" stop-opacity="1"></stop><stop offset="70%" stop-color="#cce2f5" stop-opacity="1"></stop></linearGradient></defs><defs><linearGradient id="grad1_5" x1="0%" y1="0%" x2="100%" y2="100%"><stop offset="30%" stop-color="#d3e5f8" stop-opacity="1"></stop><stop offset="70%" stop-color="#dae9fa" stop-opacity="1"></stop></linearGradient></defs><defs><linearGradient id="grad1_6" x1="0%" y1="0%" x2="100%" y2="100%"><stop offset="30%" stop-color="#e1ecfd" stop-opacity="1"></stop><stop offset="70%" stop-color="#dae9fa" stop-opacity="1"></stop></linearGradient></defs><defs><linearGradient id="grad1_7" x1="0%" y1="0%" x2="100%" y2="100%"><stop offset="30%" stop-color="#e1ecfd" stop-opacity="1"></stop><stop offset="70%" stop-color="#e7f0ff" stop-opacity="1"></stop></linearGradient></defs><defs><linearGradient id="grad2_0" x1="0%" y1="0%" x2="100%" y2="100%"><stop offset="30%" stop-color="#b5d8ec" stop-opacity="1"></stop><stop offset="70%" stop-color="#b5d8ec" stop-opacity="1"></stop></linearGradient></defs><defs><linearGradient id="grad2_1" x1="0%" y1="0%" x2="100%" y2="100%"><stop offset="30%" stop-color="#bddbef" stop-opacity="1"></stop><stop offset="70%" stop-color="#b5d8ec" stop-opacity="1"></stop></linearGradient></defs><defs><linearGradient id="grad2_2" x1="0%" y1="0%" x2="100%" y2="100%"><stop offset="30%" stop-color="#bddbef" stop-opacity="1"></stop><stop offset="70%" stop-color="#c4dff2" stop-opacity="1"></stop></linearGradient></defs><defs><linearGradient id="grad2_3" x1="0%" y1="0%" x2="100%" y2="100%"><stop offset="30%" stop-color="#cce2f5" stop-opacity="1"></stop><stop offset="70%" stop-color="#c4dff2" stop-opacity="1"></stop></linearGradient></defs><defs><linearGradient id="grad2_4" x1="0%" y1="0%" x2="100%" y2="100%"><stop offset="30%" stop-color="#cce2f5" stop-opacity="1"></stop><stop offset="70%" stop-color="#d3e5f8" stop-opacity="1"></stop></linearGradient></defs><defs><linearGradient id="grad2_5" x1="0%" y1="0%" x2="100%" y2="100%"><stop offset="30%" stop-color="#dae9fa" stop-opacity="1"></stop><stop offset="70%" stop-color="#d3e5f8" stop-opacity="1"></stop></linearGradient></defs><defs><linearGradient id="grad2_6" x1="0%" y1="0%" x2="100%" y2="100%"><stop offset="30%" stop-color="#dae9fa" stop-opacity="1"></stop><stop offset="70%" stop-color="#e1ecfd" stop-opacity="1"></stop></linearGradient></defs><defs><linearGradient id="grad2_7" x1="0%" y1="0%" x2="100%" y2="100%"><stop offset="30%" stop-color="#e7f0ff" stop-opacity="1"></stop><stop offset="70%" stop-color="#e1ecfd" stop-opacity="1"></stop></linearGradient></defs><g transform="translate(1500, 0)"><path d="M0 1350C-185.4 1343.2 -370.8 1336.3 -516.6 1247.2C-662.5 1158.1 -768.8 986.8 -835.8 835.8C-902.8 684.8 -930.6 554.2 -1009.8 418.3C-1089 282.4 -1219.5 141.2 -1350 0L0 0Z" fill="#e4eefe"></path><path d="M0 1181.3C-162.2 1175.3 -324.4 1169.3 -452 1091.3C-579.7 1013.4 -672.7 863.4 -731.3 731.3C-790 599.2 -814.3 484.9 -883.6 366C-952.8 247.1 -1067 123.5 -1181.2 0L0 0Z" fill="#ddebfc"></path><path d="M0 1012.5C-139 1007.4 -278.1 1002.2 -387.5 935.4C-496.8 868.6 -576.6 740.1 -626.9 626.9C-677.1 513.6 -698 415.6 -757.4 313.7C-816.7 211.8 -914.6 105.9 -1012.5 0L0 0Z" fill="#d6e7f9"></path><path d="M0 843.8C-115.9 839.5 -231.7 835.2 -322.9 779.5C-414 723.8 -480.5 616.7 -522.4 522.4C-564.3 428 -581.7 346.4 -631.1 261.4C-680.6 176.5 -762.2 88.2 -843.7 0L0 0Z" fill="#cfe4f6"></path><path d="M0 675C-92.7 671.6 -185.4 668.2 -258.3 623.6C-331.2 579.1 -384.4 493.4 -417.9 417.9C-451.4 342.4 -465.3 277.1 -504.9 209.1C-544.5 141.2 -609.7 70.6 -675 0L0 0Z" fill="#c8e0f4"></path><path d="M0 506.3C-69.5 503.7 -139 501.1 -193.7 467.7C-248.4 434.3 -288.3 370 -313.4 313.4C-338.6 256.8 -349 207.8 -378.7 156.9C-408.4 105.9 -457.3 52.9 -506.2 0L0 0Z" fill="#c0ddf1"></path><path d="M0 337.5C-46.3 335.8 -92.7 334.1 -129.2 311.8C-165.6 289.5 -192.2 246.7 -209 209C-225.7 171.2 -232.7 138.5 -252.5 104.6C-272.2 70.6 -304.9 35.3 -337.5 0L0 0Z" fill="#b9daee"></path><path d="M0 168.8C-23.2 167.9 -46.3 167 -64.6 155.9C-82.8 144.8 -96.1 123.3 -104.5 104.5C-112.9 85.6 -116.3 69.3 -126.2 52.3C-136.1 35.3 -152.4 17.6 -168.7 0L0 0Z" fill="#b5d8ec"></path></g><g transform="translate(0, 4000)"><path d="M0 -1350C201.5 -1355.9 402.9 -1361.7 516.6 -1247.2C630.3 -1132.8 656.2 -897.9 763.7 -763.7C871.1 -629.4 1060.2 -595.8 1171.5 -485.2C1282.8 -374.7 1316.4 -187.4 1350 0L0 0Z" fill="#e4eefe"></path><path d="M0 -1181.2C176.3 -1186.4 352.6 -1191.5 452 -1091.3C551.5 -991.2 574.2 -785.7 668.2 -668.2C762.2 -550.7 927.6 -521.3 1025 -424.6C1122.4 -327.9 1151.8 -163.9 1181.3 0L0 0Z" fill="#ddebfc"></path><path d="M0 -1012.5C151.1 -1016.9 302.2 -1021.3 387.5 -935.4C472.7 -849.6 492.2 -673.4 572.8 -572.8C653.4 -472.1 795.1 -446.8 878.6 -363.9C962.1 -281 987.3 -140.5 1012.5 0L0 0Z" fill="#d6e7f9"></path><path d="M0 -843.7C125.9 -847.4 251.8 -851.1 322.9 -779.5C393.9 -708 410.1 -561.2 477.3 -477.3C544.5 -393.4 662.6 -372.3 732.2 -303.3C801.7 -234.2 822.7 -117.1 843.8 0L0 0Z" fill="#cfe4f6"></path><path d="M0 -675C100.7 -677.9 201.5 -680.9 258.3 -623.6C315.2 -566.4 328.1 -449 381.8 -381.8C435.6 -314.7 530.1 -297.9 585.7 -242.6C641.4 -187.4 658.2 -93.7 675 0L0 0Z" fill="#c8e0f4"></path><path d="M0 -506.2C75.6 -508.4 151.1 -510.6 193.7 -467.7C236.4 -424.8 246.1 -336.7 286.4 -286.4C326.7 -236 397.6 -223.4 439.3 -182C481 -140.5 493.6 -70.3 506.3 0L0 0Z" fill="#c0ddf1"></path><path d="M0 -337.5C50.4 -339 100.7 -340.4 129.2 -311.8C157.6 -283.2 164.1 -224.5 190.9 -190.9C217.8 -157.4 265 -148.9 292.9 -121.3C320.7 -93.7 329.1 -46.8 337.5 0L0 0Z" fill="#b9daee"></path><path d="M0 -168.7C25.2 -169.5 50.4 -170.2 64.6 -155.9C78.8 -141.6 82 -112.2 95.5 -95.5C108.9 -78.7 132.5 -74.5 146.4 -60.7C160.3 -46.8 164.5 -23.4 168.8 0L0 0Z" fill="#b5d8ec"></path></g></svg>