<svg id="visual" viewBox="0 0 1500 4000" width="1500" height="4000" xmlns="http://www.w3.org/2000/svg" xmlns:xlink="http://www.w3.org/1999/xlink" version="1.1"><rect x="0" y="0" width="1500" height="4000" fill="#132940"></rect><defs><linearGradient id="grad1_0" x1="0%" y1="0%" x2="100%" y2="100%"><stop offset="30%" stop-color="#071724" stop-opacity="1"></stop><stop offset="70%" stop-color="#071724" stop-opacity="1"></stop></linearGradient></defs><defs><linearGradient id="grad1_1" x1="0%" y1="0%" x2="100%" y2="100%"><stop offset="30%" stop-color="#071724" stop-opacity="1"></stop><stop offset="70%" stop-color="#091a28" stop-opacity="1"></stop></linearGradient></defs><defs><linearGradient id="grad1_2" x1="0%" y1="0%" x2="100%" y2="100%"><stop offset="30%" stop-color="#0a1c2c" stop-opacity="1"></stop><stop offset="70%" stop-color="#091a28" stop-opacity="1"></stop></linearGradient></defs><defs><linearGradient id="grad1_3" x1="0%" y1="0%" x2="100%" y2="100%"><stop offset="30%" stop-color="#0a1c2c" stop-opacity="1"></stop><stop offset="70%" stop-color="#0c1f30" stop-opacity="1"></stop></linearGradient></defs><defs><linearGradient id="grad1_4" x1="0%" y1="0%" x2="100%" y2="100%"><stop offset="30%" stop-color="#0d2134" stop-opacity="1"></stop><stop offset="70%" stop-color="#0c1f30" stop-opacity="1"></stop></linearGradient></defs><defs><linearGradient id="grad1_5" x1="0%" y1="0%" x2="100%" y2="100%"><stop offset="30%" stop-color="#0d2134" stop-opacity="1"></stop><stop offset="70%" stop-color="#0f2438" stop-opacity="1"></stop></linearGradient></defs><defs><linearGradient id="grad1_6" x1="0%" y1="0%" x2="100%" y2="100%"><stop offset="30%" stop-color="#11263c" stop-opacity="1"></stop><stop offset="70%" stop-color="#0f2438" stop-opacity="1"></stop></linearGradient></defs><defs><linearGradient id="grad1_7" x1="0%" y1="0%" x2="100%" y2="100%"><stop offset="30%" stop-color="#11263c" stop-opacity="1"></stop><stop offset="70%" stop-color="#132940" stop-opacity="1"></stop></linearGradient></defs><defs><linearGradient id="grad2_0" x1="0%" y1="0%" x2="100%" y2="100%"><stop offset="30%" stop-color="#071724" stop-opacity="1"></stop><stop offset="70%" stop-color="#071724" stop-opacity="1"></stop></linearGradient></defs><defs><linearGradient id="grad2_1" x1="0%" y1="0%" x2="100%" y2="100%"><stop offset="30%" stop-color="#091a28" stop-opacity="1"></stop><stop offset="70%" stop-color="#071724" stop-opacity="1"></stop></linearGradient></defs><defs><linearGradient id="grad2_2" x1="0%" y1="0%" x2="100%" y2="100%"><stop offset="30%" stop-color="#091a28" stop-opacity="1"></stop><stop offset="70%" stop-color="#0a1c2c" stop-opacity="1"></stop></linearGradient></defs><defs><linearGradient id="grad2_3" x1="0%" y1="0%" x2="100%" y2="100%"><stop offset="30%" stop-color="#0c1f30" stop-opacity="1"></stop><stop offset="70%" stop-color="#0a1c2c" stop-opacity="1"></stop></linearGradient></defs><defs><linearGradient id="grad2_4" x1="0%" y1="0%" x2="100%" y2="100%"><stop offset="30%" stop-color="#0c1f30" stop-opacity="1"></stop><stop offset="70%" stop-color="#0d2134" stop-opacity="1"></stop></linearGradient></defs><defs><linearGradient id="grad2_5" x1="0%" y1="0%" x2="100%" y2="100%"><stop offset="30%" stop-color="#0f2438" stop-opacity="1"></stop><stop offset="70%" stop-color="#0d2134" stop-opacity="1"></stop></linearGradient></defs><defs><linearGradient id="grad2_6" x1="0%" y1="0%" x2="100%" y2="100%"><stop offset="30%" stop-color="#0f2438" stop-opacity="1"></stop><stop offset="70%" stop-color="#11263c" stop-opacity="1"></stop></linearGradient></defs><defs><linearGradient id="grad2_7" x1="0%" y1="0%" x2="100%" y2="100%"><stop offset="30%" stop-color="#132940" stop-opacity="1"></stop><stop offset="70%" stop-color="#11263c" stop-opacity="1"></stop></linearGradient></defs><g transform="translate(1500, 0)"><path d="M0 1350C-193.5 1350.3 -387.1 1350.5 -516.6 1247.2C-646.2 1143.9 -711.7 937.1 -791.3 791.3C-870.8 645.4 -964.2 560.6 -1059.7 438.9C-1155.1 317.2 -1252.6 158.6 -1350 0L0 0Z" fill="#12283e"></path><path d="M0 1181.3C-169.3 1181.5 -338.7 1181.7 -452 1091.3C-565.4 1000.9 -622.8 819.9 -692.3 692.3C-761.9 564.7 -843.7 490.6 -927.2 384.1C-1010.7 277.6 -1096 138.8 -1181.2 0L0 0Z" fill="#10253a"></path><path d="M0 1012.5C-145.2 1012.7 -290.3 1012.9 -387.5 935.4C-484.6 858 -533.8 702.8 -593.4 593.4C-653.1 484.1 -723.2 420.5 -794.8 329.2C-866.4 237.9 -939.4 119 -1012.5 0L0 0Z" fill="#0e2236"></path><path d="M0 843.8C-121 843.9 -241.9 844.1 -322.9 779.5C-403.9 715 -444.8 585.7 -494.5 494.5C-544.2 403.4 -602.6 350.4 -662.3 274.3C-722 198.3 -782.9 99.1 -843.7 0L0 0Z" fill="#0c2032"></path><path d="M0 675C-96.8 675.1 -193.5 675.3 -258.3 623.6C-323.1 572 -355.9 468.5 -395.6 395.6C-435.4 322.7 -482.1 280.3 -529.8 219.5C-577.6 158.6 -626.3 79.3 -675 0L0 0Z" fill="#0b1d2e"></path><path d="M0 506.3C-72.6 506.4 -145.2 506.5 -193.7 467.7C-242.3 429 -266.9 351.4 -296.7 296.7C-326.5 242 -361.6 210.2 -397.4 164.6C-433.2 119 -469.7 59.5 -506.2 0L0 0Z" fill="#091b2a"></path><path d="M0 337.5C-48.4 337.6 -96.8 337.6 -129.2 311.8C-161.5 286 -177.9 234.3 -197.8 197.8C-217.7 161.4 -241.1 140.2 -264.9 109.7C-288.8 79.3 -313.1 39.7 -337.5 0L0 0Z" fill="#081826"></path><path d="M0 168.8C-24.2 168.8 -48.4 168.8 -64.6 155.9C-80.8 143 -89 117.1 -98.9 98.9C-108.8 80.7 -120.5 70.1 -132.5 54.9C-144.4 39.7 -156.6 19.8 -168.7 0L0 0Z" fill="#071724"></path></g><g transform="translate(0, 4000)"><path d="M0 -1350C144.1 -1266.5 288.3 -1183.1 470.3 -1135.4C652.4 -1087.8 872.3 -1076.1 954.6 -954.6C1036.9 -833.1 981.6 -601.8 1024.6 -424.4C1067.5 -247 1208.8 -123.5 1350 0L0 0Z" fill="#12283e"></path><path d="M0 -1181.2C126.1 -1108.2 252.2 -1035.2 411.5 -993.5C570.8 -951.9 763.2 -941.6 835.3 -835.3C907.3 -728.9 858.9 -526.6 896.5 -371.3C934.1 -216.1 1057.7 -108.1 1181.3 0L0 0Z" fill="#10253a"></path><path d="M0 -1012.5C108.1 -949.9 216.2 -887.3 352.7 -851.6C489.3 -815.9 654.2 -807.1 715.9 -715.9C777.7 -624.8 736.2 -451.3 768.4 -318.3C800.7 -185.3 906.6 -92.6 1012.5 0L0 0Z" fill="#0e2236"></path><path d="M0 -843.7C90.1 -791.6 180.2 -739.4 293.9 -709.7C407.7 -679.9 545.2 -672.6 596.6 -596.6C648.1 -520.7 613.5 -376.1 640.4 -265.2C667.2 -154.4 755.5 -77.2 843.8 0L0 0Z" fill="#0c2032"></path><path d="M0 -675C72.1 -633.3 144.1 -591.5 235.2 -567.7C326.2 -543.9 436.1 -538.1 477.3 -477.3C518.5 -416.5 490.8 -300.9 512.3 -212.2C533.8 -123.5 604.4 -61.8 675 0L0 0Z" fill="#0b1d2e"></path><path d="M0 -506.2C54.1 -474.9 108.1 -443.6 176.4 -425.8C244.6 -407.9 327.1 -403.5 358 -358C388.8 -312.4 368.1 -225.7 384.2 -159.1C400.3 -92.6 453.3 -46.3 506.3 0L0 0Z" fill="#091b2a"></path><path d="M0 -337.5C36 -316.6 72.1 -295.8 117.6 -283.9C163.1 -272 218.1 -269 238.6 -238.6C259.2 -208.3 245.4 -150.4 256.1 -106.1C266.9 -61.8 302.2 -30.9 337.5 0L0 0Z" fill="#081826"></path><path d="M0 -168.7C18 -158.3 36 -147.9 58.8 -141.9C81.5 -136 109 -134.5 119.3 -119.3C129.6 -104.1 122.7 -75.2 128.1 -53C133.4 -30.9 151.1 -15.4 168.8 0L0 0Z" fill="#071724"></path></g></svg>