<svg xmlns="http://www.w3.org/2000/svg" version="1.1" xmlns:xlink="http://www.w3.org/1999/xlink" xmlns:svgjs="http://svgjs.dev/svgjs" width="2500" height="2500" preserveAspectRatio="none" viewBox="0 0 2500 2500"><g mask="url(&quot;#SvgjsMask1124&quot;)" fill="none"><rect width="2500" height="2500" x="0" y="0" fill="rgba(240, 240, 240, 1)"></rect><path d="M0.75 110.2L44.05 135.2L44.05 185.2L0.75 210.2L-42.55 185.2L-42.55 135.2zM44.05 1085.2L87.36 1110.2L87.36 1160.2L44.05 1185.2L0.75 1160.2L0.75 1110.2zM44.05 1685.2L87.36 1710.2L87.36 1760.2L44.05 1785.2L0.75 1760.2L0.75 1710.2zM44.05 2135.2L87.36 2160.2L87.36 2210.2L44.05 2235.2L0.75 2210.2L0.75 2160.2zM87.36 -39.8L130.66 -14.8L130.66 35.2L87.36 60.2L44.05 35.2L44.05 -14.8zM130.66 35.2L173.96 60.2L173.96 110.2L130.66 135.2L87.36 110.2L87.36 60.2zM87.36 410.2L130.66 435.2L130.66 485.2L87.36 510.2L44.05 485.2L44.05 435.2zM87.36 710.2L130.66 735.2L130.66 785.2L87.36 810.2L44.05 785.2L44.05 735.2zM130.66 1835.2L173.96 1860.2L173.96 1910.2L130.66 1935.2L87.36 1910.2L87.36 1860.2zM130.66 2435.2L173.96 2460.2L173.96 2510.2L130.66 2535.2L87.36 2510.2L87.36 2460.2zM217.26 335.2L260.56 360.2L260.56 410.2L217.26 435.2L173.96 410.2L173.96 360.2zM217.26 1835.2L260.56 1860.2L260.56 1910.2L217.26 1935.2L173.96 1910.2L173.96 1860.2zM217.26 2435.2L260.56 2460.2L260.56 2510.2L217.26 2535.2L173.96 2510.2L173.96 2460.2zM303.87 1985.2L347.17 2010.2L347.17 2060.2L303.87 2085.2L260.56 2060.2L260.56 2010.2zM303.87 2135.2L347.17 2160.2L347.17 2210.2L303.87 2235.2L260.56 2210.2L260.56 2160.2zM260.56 2210.2L303.87 2235.2L303.87 2285.2L260.56 2310.2L217.26 2285.2L217.26 2235.2zM303.87 2435.2L347.17 2460.2L347.17 2510.2L303.87 2535.2L260.56 2510.2L260.56 2460.2zM347.17 410.2L390.47 435.2L390.47 485.2L347.17 510.2L303.87 485.2L303.87 435.2zM347.17 860.2L390.47 885.2L390.47 935.2L347.17 960.2L303.87 935.2L303.87 885.2zM390.47 935.2L433.78 960.2L433.78 1010.2L390.47 1035.2L347.17 1010.2L347.17 960.2zM347.17 1310.2L390.47 1335.2L390.47 1385.2L347.17 1410.2L303.87 1385.2L303.87 1335.2zM347.17 1760.2L390.47 1785.2L390.47 1835.2L347.17 1860.2L303.87 1835.2L303.87 1785.2zM347.17 2060.2L390.47 2085.2L390.47 2135.2L347.17 2160.2L303.87 2135.2L303.87 2085.2zM433.78 -39.8L477.08 -14.8L477.08 35.2L433.78 60.2L390.47 35.2L390.47 -14.8zM477.08 485.2L520.38 510.2L520.38 560.2L477.08 585.2L433.78 560.2L433.78 510.2zM477.08 935.2L520.38 960.2L520.38 1010.2L477.08 1035.2L433.78 1010.2L433.78 960.2zM433.78 1610.2L477.08 1635.2L477.08 1685.2L433.78 1710.2L390.47 1685.2L390.47 1635.2zM563.68 185.2L606.99 210.2L606.99 260.2L563.68 285.2L520.38 260.2L520.38 210.2zM520.38 260.2L563.68 285.2L563.68 335.2L520.38 360.2L477.08 335.2L477.08 285.2zM563.68 335.2L606.99 360.2L606.99 410.2L563.68 435.2L520.38 410.2L520.38 360.2zM563.68 1235.2L606.99 1260.2L606.99 1310.2L563.68 1335.2L520.38 1310.2L520.38 1260.2zM520.38 1310.2L563.68 1335.2L563.68 1385.2L520.38 1410.2L477.08 1385.2L477.08 1335.2zM563.68 1385.2L606.99 1410.2L606.99 1460.2L563.68 1485.2L520.38 1460.2L520.38 1410.2zM520.38 2360.2L563.68 2385.2L563.68 2435.2L520.38 2460.2L477.08 2435.2L477.08 2385.2zM650.29 35.2L693.59 60.2L693.59 110.2L650.29 135.2L606.99 110.2L606.99 60.2zM606.99 560.2L650.29 585.2L650.29 635.2L606.99 660.2L563.68 635.2L563.68 585.2zM606.99 1010.2L650.29 1035.2L650.29 1085.2L606.99 1110.2L563.68 1085.2L563.68 1035.2zM606.99 1160.2L650.29 1185.2L650.29 1235.2L606.99 1260.2L563.68 1235.2L563.68 1185.2zM606.99 1310.2L650.29 1335.2L650.29 1385.2L606.99 1410.2L563.68 1385.2L563.68 1335.2zM650.29 1385.2L693.59 1410.2L693.59 1460.2L650.29 1485.2L606.99 1460.2L606.99 1410.2zM606.99 2210.2L650.29 2235.2L650.29 2285.2L606.99 2310.2L563.68 2285.2L563.68 2235.2zM650.29 2435.2L693.59 2460.2L693.59 2510.2L650.29 2535.2L606.99 2510.2L606.99 2460.2zM693.59 260.2L736.89 285.2L736.89 335.2L693.59 360.2L650.29 335.2L650.29 285.2zM736.89 485.2L780.2 510.2L780.2 560.2L736.89 585.2L693.59 560.2L693.59 510.2zM736.89 935.2L780.2 960.2L780.2 1010.2L736.89 1035.2L693.59 1010.2L693.59 960.2zM736.89 1085.2L780.2 1110.2L780.2 1160.2L736.89 1185.2L693.59 1160.2L693.59 1110.2zM693.59 1760.2L736.89 1785.2L736.89 1835.2L693.59 1860.2L650.29 1835.2L650.29 1785.2zM736.89 2135.2L780.2 2160.2L780.2 2210.2L736.89 2235.2L693.59 2210.2L693.59 2160.2zM780.2 1610.2L823.5 1635.2L823.5 1685.2L780.2 1710.2L736.89 1685.2L736.89 1635.2zM823.5 1685.2L866.8 1710.2L866.8 1760.2L823.5 1785.2L780.2 1760.2L780.2 1710.2zM823.5 1985.2L866.8 2010.2L866.8 2060.2L823.5 2085.2L780.2 2060.2L780.2 2010.2zM780.2 2210.2L823.5 2235.2L823.5 2285.2L780.2 2310.2L736.89 2285.2L736.89 2235.2zM910.1 935.2L953.41 960.2L953.41 1010.2L910.1 1035.2L866.8 1010.2L866.8 960.2zM866.8 1760.2L910.1 1785.2L910.1 1835.2L866.8 1860.2L823.5 1835.2L823.5 1785.2zM910.1 1985.2L953.41 2010.2L953.41 2060.2L910.1 2085.2L866.8 2060.2L866.8 2010.2zM866.8 2360.2L910.1 2385.2L910.1 2435.2L866.8 2460.2L823.5 2435.2L823.5 2385.2zM910.1 2435.2L953.41 2460.2L953.41 2510.2L910.1 2535.2L866.8 2510.2L866.8 2460.2zM953.41 410.2L996.71 435.2L996.71 485.2L953.41 510.2L910.1 485.2L910.1 435.2zM953.41 560.2L996.71 585.2L996.71 635.2L953.41 660.2L910.1 635.2L910.1 585.2zM996.71 935.2L1040.01 960.2L1040.01 1010.2L996.71 1035.2L953.41 1010.2L953.41 960.2zM996.71 1085.2L1040.01 1110.2L1040.01 1160.2L996.71 1185.2L953.41 1160.2L953.41 1110.2zM996.71 1385.2L1040.01 1410.2L1040.01 1460.2L996.71 1485.2L953.41 1460.2L953.41 1410.2zM1083.31 785.2L1126.62 810.2L1126.62 860.2L1083.31 885.2L1040.01 860.2L1040.01 810.2zM1040.01 1010.2L1083.31 1035.2L1083.31 1085.2L1040.01 1110.2L996.71 1085.2L996.71 1035.2zM1083.31 1085.2L1126.62 1110.2L1126.62 1160.2L1083.31 1185.2L1040.01 1160.2L1040.01 1110.2zM1040.01 1760.2L1083.31 1785.2L1083.31 1835.2L1040.01 1860.2L996.71 1835.2L996.71 1785.2zM1083.31 1835.2L1126.62 1860.2L1126.62 1910.2L1083.31 1935.2L1040.01 1910.2L1040.01 1860.2zM1083.31 1985.2L1126.62 2010.2L1126.62 2060.2L1083.31 2085.2L1040.01 2060.2L1040.01 2010.2zM1040.01 2210.2L1083.31 2235.2L1083.31 2285.2L1040.01 2310.2L996.71 2285.2L996.71 2235.2zM1083.31 2285.2L1126.62 2310.2L1126.62 2360.2L1083.31 2385.2L1040.01 2360.2L1040.01 2310.2zM1126.62 560.2L1169.92 585.2L1169.92 635.2L1126.62 660.2L1083.31 635.2L1083.31 585.2zM1126.62 1160.2L1169.92 1185.2L1169.92 1235.2L1126.62 1260.2L1083.31 1235.2L1083.31 1185.2zM1169.92 1235.2L1213.22 1260.2L1213.22 1310.2L1169.92 1335.2L1126.62 1310.2L1126.62 1260.2zM1126.62 1610.2L1169.92 1635.2L1169.92 1685.2L1126.62 1710.2L1083.31 1685.2L1083.31 1635.2zM1169.92 1685.2L1213.22 1710.2L1213.22 1760.2L1169.92 1785.2L1126.62 1760.2L1126.62 1710.2zM1169.92 1985.2L1213.22 2010.2L1213.22 2060.2L1169.92 2085.2L1126.62 2060.2L1126.62 2010.2zM1256.52 35.2L1299.83 60.2L1299.83 110.2L1256.52 135.2L1213.22 110.2L1213.22 60.2zM1213.22 410.2L1256.52 435.2L1256.52 485.2L1213.22 510.2L1169.92 485.2L1169.92 435.2zM1213.22 1010.2L1256.52 1035.2L1256.52 1085.2L1213.22 1110.2L1169.92 1085.2L1169.92 1035.2zM1256.52 1085.2L1299.83 1110.2L1299.83 1160.2L1256.52 1185.2L1213.22 1160.2L1213.22 1110.2zM1256.52 1535.2L1299.83 1560.2L1299.83 1610.2L1256.52 1635.2L1213.22 1610.2L1213.22 1560.2zM1213.22 1610.2L1256.52 1635.2L1256.52 1685.2L1213.22 1710.2L1169.92 1685.2L1169.92 1635.2zM1213.22 1760.2L1256.52 1785.2L1256.52 1835.2L1213.22 1860.2L1169.92 1835.2L1169.92 1785.2zM1213.22 2060.2L1256.52 2085.2L1256.52 2135.2L1213.22 2160.2L1169.92 2135.2L1169.92 2085.2zM1299.83 560.2L1343.13 585.2L1343.13 635.2L1299.83 660.2L1256.52 635.2L1256.52 585.2zM1343.13 2435.2L1386.43 2460.2L1386.43 2510.2L1343.13 2535.2L1299.83 2510.2L1299.83 2460.2zM1386.43 710.2L1429.73 735.2L1429.73 785.2L1386.43 810.2L1343.13 785.2L1343.13 735.2zM1429.73 1685.2L1473.04 1710.2L1473.04 1760.2L1429.73 1785.2L1386.43 1760.2L1386.43 1710.2zM1386.43 2360.2L1429.73 2385.2L1429.73 2435.2L1386.43 2460.2L1343.13 2435.2L1343.13 2385.2zM1473.04 -39.8L1516.34 -14.8L1516.34 35.2L1473.04 60.2L1429.73 35.2L1429.73 -14.8zM1516.34 35.2L1559.64 60.2L1559.64 110.2L1516.34 135.2L1473.04 110.2L1473.04 60.2zM1473.04 110.2L1516.34 135.2L1516.34 185.2L1473.04 210.2L1429.73 185.2L1429.73 135.2zM1473.04 1160.2L1516.34 1185.2L1516.34 1235.2L1473.04 1260.2L1429.73 1235.2L1429.73 1185.2zM1516.34 1385.2L1559.64 1410.2L1559.64 1460.2L1516.34 1485.2L1473.04 1460.2L1473.04 1410.2zM1473.04 2210.2L1516.34 2235.2L1516.34 2285.2L1473.04 2310.2L1429.73 2285.2L1429.73 2235.2zM1516.34 2435.2L1559.64 2460.2L1559.64 2510.2L1516.34 2535.2L1473.04 2510.2L1473.04 2460.2zM1602.94 35.2L1646.25 60.2L1646.25 110.2L1602.94 135.2L1559.64 110.2L1559.64 60.2zM1602.94 185.2L1646.25 210.2L1646.25 260.2L1602.94 285.2L1559.64 260.2L1559.64 210.2zM1602.94 635.2L1646.25 660.2L1646.25 710.2L1602.94 735.2L1559.64 710.2L1559.64 660.2zM1559.64 710.2L1602.94 735.2L1602.94 785.2L1559.64 810.2L1516.34 785.2L1516.34 735.2zM1602.94 935.2L1646.25 960.2L1646.25 1010.2L1602.94 1035.2L1559.64 1010.2L1559.64 960.2zM1559.64 1310.2L1602.94 1335.2L1602.94 1385.2L1559.64 1410.2L1516.34 1385.2L1516.34 1335.2zM1559.64 1610.2L1602.94 1635.2L1602.94 1685.2L1559.64 1710.2L1516.34 1685.2L1516.34 1635.2zM1602.94 1685.2L1646.25 1710.2L1646.25 1760.2L1602.94 1785.2L1559.64 1760.2L1559.64 1710.2zM1602.94 1835.2L1646.25 1860.2L1646.25 1910.2L1602.94 1935.2L1559.64 1910.2L1559.64 1860.2zM1646.25 1160.2L1689.55 1185.2L1689.55 1235.2L1646.25 1260.2L1602.94 1235.2L1602.94 1185.2zM1646.25 1310.2L1689.55 1335.2L1689.55 1385.2L1646.25 1410.2L1602.94 1385.2L1602.94 1335.2zM1646.25 1760.2L1689.55 1785.2L1689.55 1835.2L1646.25 1860.2L1602.94 1835.2L1602.94 1785.2zM1646.25 2210.2L1689.55 2235.2L1689.55 2285.2L1646.25 2310.2L1602.94 2285.2L1602.94 2235.2zM1776.15 335.2L1819.46 360.2L1819.46 410.2L1776.15 435.2L1732.85 410.2L1732.85 360.2zM1776.15 485.2L1819.46 510.2L1819.46 560.2L1776.15 585.2L1732.85 560.2L1732.85 510.2zM1776.15 785.2L1819.46 810.2L1819.46 860.2L1776.15 885.2L1732.85 860.2L1732.85 810.2zM1776.15 1535.2L1819.46 1560.2L1819.46 1610.2L1776.15 1635.2L1732.85 1610.2L1732.85 1560.2zM1819.46 -39.8L1862.76 -14.8L1862.76 35.2L1819.46 60.2L1776.15 35.2L1776.15 -14.8zM1819.46 110.2L1862.76 135.2L1862.76 185.2L1819.46 210.2L1776.15 185.2L1776.15 135.2zM1862.76 185.2L1906.06 210.2L1906.06 260.2L1862.76 285.2L1819.46 260.2L1819.46 210.2zM1862.76 635.2L1906.06 660.2L1906.06 710.2L1862.76 735.2L1819.46 710.2L1819.46 660.2zM1819.46 1010.2L1862.76 1035.2L1862.76 1085.2L1819.46 1110.2L1776.15 1085.2L1776.15 1035.2zM1906.06 -39.8L1949.36 -14.8L1949.36 35.2L1906.06 60.2L1862.76 35.2L1862.76 -14.8zM1949.36 185.2L1992.67 210.2L1992.67 260.2L1949.36 285.2L1906.06 260.2L1906.06 210.2zM1949.36 335.2L1992.67 360.2L1992.67 410.2L1949.36 435.2L1906.06 410.2L1906.06 360.2zM1906.06 860.2L1949.36 885.2L1949.36 935.2L1906.06 960.2L1862.76 935.2L1862.76 885.2zM1949.36 935.2L1992.67 960.2L1992.67 1010.2L1949.36 1035.2L1906.06 1010.2L1906.06 960.2zM1906.06 1010.2L1949.36 1035.2L1949.36 1085.2L1906.06 1110.2L1862.76 1085.2L1862.76 1035.2zM1906.06 1160.2L1949.36 1185.2L1949.36 1235.2L1906.06 1260.2L1862.76 1235.2L1862.76 1185.2zM1992.67 1310.2L2035.97 1335.2L2035.97 1385.2L1992.67 1410.2L1949.36 1385.2L1949.36 1335.2zM1992.67 1460.2L2035.97 1485.2L2035.97 1535.2L1992.67 1560.2L1949.36 1535.2L1949.36 1485.2zM2035.97 1685.2L2079.27 1710.2L2079.27 1760.2L2035.97 1785.2L1992.67 1760.2L1992.67 1710.2zM1992.67 1760.2L2035.97 1785.2L2035.97 1835.2L1992.67 1860.2L1949.36 1835.2L1949.36 1785.2zM2035.97 1985.2L2079.27 2010.2L2079.27 2060.2L2035.97 2085.2L1992.67 2060.2L1992.67 2010.2zM2122.57 35.2L2165.87 60.2L2165.87 110.2L2122.57 135.2L2079.27 110.2L2079.27 60.2zM2122.57 185.2L2165.87 210.2L2165.87 260.2L2122.57 285.2L2079.27 260.2L2079.27 210.2zM2079.27 260.2L2122.57 285.2L2122.57 335.2L2079.27 360.2L2035.97 335.2L2035.97 285.2zM2079.27 1010.2L2122.57 1035.2L2122.57 1085.2L2079.27 1110.2L2035.97 1085.2L2035.97 1035.2zM2122.57 1835.2L2165.87 1860.2L2165.87 1910.2L2122.57 1935.2L2079.27 1910.2L2079.27 1860.2zM2165.88 -39.8L2209.18 -14.8L2209.18 35.2L2165.88 60.2L2122.57 35.2L2122.57 -14.8zM2209.18 185.2L2252.48 210.2L2252.48 260.2L2209.18 285.2L2165.88 260.2L2165.88 210.2zM2165.88 410.2L2209.18 435.2L2209.18 485.2L2165.88 510.2L2122.57 485.2L2122.57 435.2zM2209.18 935.2L2252.48 960.2L2252.48 1010.2L2209.18 1035.2L2165.88 1010.2L2165.88 960.2zM2165.88 1310.2L2209.18 1335.2L2209.18 1385.2L2165.88 1410.2L2122.57 1385.2L2122.57 1335.2zM2209.18 1385.2L2252.48 1410.2L2252.48 1460.2L2209.18 1485.2L2165.88 1460.2L2165.88 1410.2zM2165.88 1610.2L2209.18 1635.2L2209.18 1685.2L2165.88 1710.2L2122.57 1685.2L2122.57 1635.2zM2165.88 1760.2L2209.18 1785.2L2209.18 1835.2L2165.88 1860.2L2122.57 1835.2L2122.57 1785.2zM2165.88 1910.2L2209.18 1935.2L2209.18 1985.2L2165.88 2010.2L2122.57 1985.2L2122.57 1935.2zM2209.18 2285.2L2252.48 2310.2L2252.48 2360.2L2209.18 2385.2L2165.88 2360.2L2165.88 2310.2zM2295.78 185.2L2339.08 210.2L2339.08 260.2L2295.78 285.2L2252.48 260.2L2252.48 210.2zM2295.78 785.2L2339.08 810.2L2339.08 860.2L2295.78 885.2L2252.48 860.2L2252.48 810.2zM2252.48 1010.2L2295.78 1035.2L2295.78 1085.2L2252.48 1110.2L2209.18 1085.2L2209.18 1035.2zM2295.78 1535.2L2339.08 1560.2L2339.08 1610.2L2295.78 1635.2L2252.48 1610.2L2252.48 1560.2zM2339.09 410.2L2382.39 435.2L2382.39 485.2L2339.09 510.2L2295.78 485.2L2295.78 435.2zM2382.39 935.2L2425.69 960.2L2425.69 1010.2L2382.39 1035.2L2339.09 1010.2L2339.09 960.2zM2339.09 1310.2L2382.39 1335.2L2382.39 1385.2L2339.09 1410.2L2295.78 1385.2L2295.78 1335.2zM2382.39 1835.2L2425.69 1860.2L2425.69 1910.2L2382.39 1935.2L2339.09 1910.2L2339.09 1860.2zM2339.09 1910.2L2382.39 1935.2L2382.39 1985.2L2339.09 2010.2L2295.78 1985.2L2295.78 1935.2zM2468.99 485.2L2512.29 510.2L2512.29 560.2L2468.99 585.2L2425.69 560.2L2425.69 510.2zM2425.69 560.2L2468.99 585.2L2468.99 635.2L2425.69 660.2L2382.39 635.2L2382.39 585.2zM2468.99 785.2L2512.29 810.2L2512.29 860.2L2468.99 885.2L2425.69 860.2L2425.69 810.2zM2425.69 860.2L2468.99 885.2L2468.99 935.2L2425.69 960.2L2382.39 935.2L2382.39 885.2zM2468.99 935.2L2512.29 960.2L2512.29 1010.2L2468.99 1035.2L2425.69 1010.2L2425.69 960.2zM2468.99 2285.2L2512.29 2310.2L2512.29 2360.2L2468.99 2385.2L2425.69 2360.2L2425.69 2310.2z" stroke="rgba(6, 80, 156, 0.15)" stroke-width="2"></path></g><defs><mask id="SvgjsMask1124"><rect width="2500" height="2500" fill="#ffffff"></rect></mask></defs></svg>